<svg xmlns="http://www.w3.org/2000/svg" width="160" height="160" viewBox="0 0 160 160"><rect width="100%" height="100%" fill="#DDDDDD"/><path fill="#999999" d="M60.565 64.78v10.66h-2.14V64.78zm2.13 0h2.79l2.72 7.85h.04l2.74-7.85h2.8v10.66h-2.14v-3.18l.21-4.71-.05-.01-2.85 7.9h-1.44l-2.84-7.87-.04.01.2 4.68v3.18h-2.14zm19.54 10.66-.73-2.3h-3.74l-.73 2.3h-2.16l3.67-10.66h2.19l3.66 10.66zm-2.62-8.17-1.33 4.19h2.69l-1.32-4.19zm13.96 2.69v4.02q-.48.63-1.48 1.12-1.01.49-2.55.49-1.95 0-3.19-1.21-1.24-1.22-1.24-3.16v-2.23q0-1.93 1.19-3.15t3.07-1.22q1.94 0 2.98.95t1.06 2.49l-.02.05h-2.01q-.06-.85-.54-1.35-.48-.49-1.41-.49-.99 0-1.59.76t-.6 1.95v2.24q0 1.22.63 1.98.62.75 1.67.75.75 0 1.2-.15.46-.15.69-.38v-1.98h-1.89v-1.48zm8.39-.86v1.65h-4.41v3.05h5.16v1.64h-7.3V64.78h7.29v1.64h-5.15v2.68zm-65.99 22.5h2.07l.01.04q.03 1.72-1.05 2.73t-3 1.01-3.12-1.24q-1.21-1.24-1.21-3.19v-2.11q0-1.94 1.18-3.19 1.17-1.25 3.04-1.25 1.98 0 3.09 1.02 1.12 1.01 1.09 2.76l-.02.05h-2.08q0-1.06-.5-1.62-.51-.56-1.58-.56-.96 0-1.52.78t-.56 1.99v2.13q0 1.23.59 2.01t1.6.78 1.49-.54.48-1.6m12.18-2.67v1.92q0 1.96-1.24 3.24-1.24 1.29-3.22 1.29-1.97 0-3.21-1.29-1.23-1.28-1.23-3.24v-1.92q0-1.95 1.23-3.24t3.2-1.29q1.98 0 3.23 1.29 1.24 1.29 1.24 3.24m-2.14 1.92v-1.93q0-1.25-.62-2.05t-1.71-.8-1.69.8q-.6.79-.6 2.05v1.93q0 1.27.6 2.07.61.79 1.7.79t1.71-.79q.61-.8.61-2.07m3.81-6.29h2.79l2.72 7.86h.04l2.74-7.86h2.8v10.66h-2.14v-3.18l.21-4.71h-.05l-2.85 7.89h-1.44l-2.84-7.86h-.04l.2 4.68v3.18h-2.14zm15.36 0v10.66h-2.14V84.56zm10.75 0v10.66h-2.13l-4.3-7.28h-.05v7.28h-2.14V84.56h2.14l4.31 7.28.04-.01v-7.27zm10.19 5.18v4.03q-.47.63-1.48 1.12t-2.55.49q-1.95 0-3.19-1.22T77.665 91v-2.22q0-1.94 1.19-3.16t3.07-1.22q1.95 0 2.98.95 1.04.95 1.06 2.5l-.01.04h-2.02q-.06-.85-.54-1.34-.48-.5-1.41-.5-.99 0-1.59.76t-.6 1.95V91q0 1.22.63 1.98.62.76 1.67.76.75 0 1.2-.16.46-.15.69-.38v-1.98h-1.89v-1.48zm11.33 2.7q0-.62-.43-.99-.44-.37-1.53-.7-1.9-.55-2.88-1.31-.97-.75-.97-2.06t1.11-2.14q1.12-.84 2.86-.84 1.75 0 2.86.94 1.11.93 1.07 2.3l-.01.05h-2.08q0-.74-.49-1.2-.5-.46-1.39-.46-.86 0-1.33.38-.46.38-.46.98 0 .54.5.89.5.34 1.73.73 1.76.49 2.67 1.3.91.8.91 2.11 0 1.37-1.08 2.17-1.08.79-2.85.79-1.75 0-3.04-.9-1.3-.9-1.26-2.52l.01-.04h2.08q0 .95.59 1.39.58.45 1.62.45.87 0 1.33-.36t.46-.96m12.34-3.51v1.92q0 1.96-1.24 3.24-1.25 1.29-3.23 1.29-1.97 0-3.2-1.29-1.23-1.28-1.23-3.24v-1.92q0-1.95 1.22-3.24 1.23-1.29 3.2-1.29 1.99 0 3.23 1.29 1.25 1.29 1.25 3.24m-2.14 1.92v-1.93q0-1.25-.62-2.05-.63-.8-1.72-.8t-1.69.8q-.6.79-.6 2.05v1.93q0 1.27.61 2.07.6.79 1.69.79 1.1 0 1.71-.79.62-.8.62-2.07m12.38-1.92v1.92q0 1.96-1.24 3.24-1.24 1.29-3.22 1.29-1.97 0-3.21-1.29-1.23-1.28-1.23-3.24v-1.92q0-1.95 1.23-3.24t3.2-1.29q1.98 0 3.23 1.29 1.24 1.29 1.24 3.24m-2.14 1.92v-1.93q0-1.25-.62-2.05t-1.71-.8-1.69.8q-.6.79-.6 2.05v1.93q0 1.27.6 2.07.61.79 1.7.79t1.71-.79q.61-.8.61-2.07m12.43-6.29v10.66h-2.13l-4.3-7.28h-.05v7.28h-2.14V84.56h2.14l4.31 7.28.04-.01v-7.27z"/></svg>